<?xml version="1.0" standalone="no"?>
<!DOCTYPE svg PUBLIC "-//W3C//DTD SVG 20010904//EN"
 "http://www.w3.org/TR/2001/REC-SVG-20010904/DTD/svg10.dtd">
<svg version="1.0" xmlns="http://www.w3.org/2000/svg"
 width="912.000000pt" height="912.000000pt" viewBox="0 0 912.000000 912.000000"
 preserveAspectRatio="xMidYMid meet">
<metadata>
Created by potrace 1.14, written by Peter Selinger 2001-2017
</metadata>
<g transform="translate(0.000000,912.000000) scale(0.100000,-0.100000)"
fill="#000000" stroke="none">
<path d="M3040 7030 l0 -190 -380 0 -380 0 0 -190 0 -190 -190 0 -190 0 0
-760 0 -760 -190 0 -190 0 0 -190 0 -190 -190 0 -190 0 0 -190 0 -190 -190 0
-190 0 0 -570 0 -570 190 0 190 0 0 -190 0 -190 190 0 190 0 0 -190 0 -190
1140 0 1140 0 0 190 0 190 190 0 190 0 0 -190 0 -190 380 0 380 0 0 -190 0
-190 1330 0 1330 0 0 190 0 190 380 0 380 0 0 190 0 190 190 0 190 0 0 760 0
760 -190 0 -190 0 0 190 0 190 -380 0 -380 0 0 190 0 190 -570 0 -570 0 0 190
0 190 190 0 190 0 0 570 0 570 -190 0 -190 0 0 190 0 190 -380 0 -380 0 0 190
0 190 -1330 0 -1330 0 0 -190z m2660 -380 l0 -190 190 0 190 0 0 -190 0 -190
-380 0 -380 0 0 190 0 190 -570 0 -570 0 0 -190 0 -190 380 0 380 0 0 -190 0
-190 -570 0 -570 0 0 190 0 190 -190 0 -190 0 0 -190 0 -190 -380 0 -380 0 0
190 0 190 380 0 380 0 0 190 0 190 380 0 380 0 0 190 0 190 760 0 760 0 0
-190z m-1520 -1520 l0 -190 190 0 190 0 0 -380 0 -380 -190 0 -190 0 0 -190 0
-190 -190 0 -190 0 0 -190 0 -190 -380 0 -380 0 0 190 0 190 -570 0 -570 0 0
-190 0 -190 380 0 380 0 0 -190 0 -190 -380 0 -380 0 0 190 0 190 -190 0 -190
0 0 190 0 190 190 0 190 0 0 190 0 190 190 0 190 0 0 380 0 380 380 0 380 0 0
190 0 190 570 0 570 0 0 -190z m3040 -760 l0 -190 380 0 380 0 0 -190 0 -190
190 0 190 0 0 -380 0 -380 -380 0 -380 0 0 -190 0 -190 -1140 0 -1140 0 0 190
0 190 190 0 190 0 0 190 0 190 190 0 190 0 0 190 0 190 570 0 570 0 0 190 0
190 -380 0 -380 0 0 190 0 190 380 0 380 0 0 -190z"/>
<path d="M3800 4370 l0 -190 -190 0 -190 0 0 -190 0 -190 190 0 190 0 0 190 0
190 190 0 190 0 0 190 0 190 -190 0 -190 0 0 -190z"/>
<path d="M7220 3610 l0 -190 190 0 190 0 0 190 0 190 -190 0 -190 0 0 -190z"/>
<path d="M6080 3230 l0 -190 380 0 380 0 0 190 0 190 -380 0 -380 0 0 -190z"/>
</g>
</svg>
